<svg width="20" height="20" viewBox="0 0 20 20" fill="none" xmlns="http://www.w3.org/2000/svg">
<path fill-rule="evenodd" clip-rule="evenodd" d="M5 8.125C3.96447 8.125 3.125 8.96447 3.125 10C3.125 11.0355 3.96447 11.875 5 11.875C6.03553 11.875 6.875 11.0355 6.875 10C6.875 8.96447 6.03553 8.125 5 8.125ZM1.875 10C1.875 8.27411 3.27411 6.875 5 6.875C6.72589 6.875 8.125 8.27411 8.125 10C8.125 11.7259 6.72589 13.125 5 13.125C3.27411 13.125 1.875 11.7259 1.875 10Z" fill="#B20000"/>
<path fill-rule="evenodd" clip-rule="evenodd" d="M15 3.125C13.9645 3.125 13.125 3.96447 13.125 5C13.125 6.03553 13.9645 6.875 15 6.875C16.0355 6.875 16.875 6.03553 16.875 5C16.875 3.96447 16.0355 3.125 15 3.125ZM11.875 5C11.875 3.27411 13.2741 1.875 15 1.875C16.7259 1.875 18.125 3.27411 18.125 5C18.125 6.72589 16.7259 8.125 15 8.125C13.2741 8.125 11.875 6.72589 11.875 5Z" fill="#B20000"/>
<path fill-rule="evenodd" clip-rule="evenodd" d="M15 13.125C13.9645 13.125 13.125 13.9645 13.125 15C13.125 16.0355 13.9645 16.875 15 16.875C16.0355 16.875 16.875 16.0355 16.875 15C16.875 13.9645 16.0355 13.125 15 13.125ZM11.875 15C11.875 13.2741 13.2741 11.875 15 11.875C16.7259 11.875 18.125 13.2741 18.125 15C18.125 16.7259 16.7259 18.125 15 18.125C13.2741 18.125 11.875 16.7259 11.875 15Z" fill="#B20000"/>
<path fill-rule="evenodd" clip-rule="evenodd" d="M13.3055 5.79713C13.4636 6.10398 13.343 6.48088 13.0361 6.63896L7.53611 9.47229C7.22926 9.63037 6.85235 9.50976 6.69428 9.20291C6.5362 8.89605 6.65681 8.51915 6.96366 8.36108L12.4637 5.52774C12.7705 5.36967 13.1474 5.49028 13.3055 5.79713Z" fill="#B20000"/>
<path fill-rule="evenodd" clip-rule="evenodd" d="M6.69428 10.7971C6.85235 10.4903 7.22926 10.3697 7.53611 10.5277L13.0361 13.3611C13.343 13.5192 13.4636 13.8961 13.3055 14.2029C13.1474 14.5098 12.7705 14.6304 12.4637 14.4723L6.96366 11.639C6.65681 11.4809 6.5362 11.104 6.69428 10.7971Z" fill="#B20000"/>
</svg>
